# xmcd
#
# Track frame offsets:
# 175
# 25530
# 41255
# 58315
# 74265
# 96662
# 111247
# 134555
# 161310
# 176707
# 188810
# 204905
#
# Disc length: 2938 seconds
#
#
# Revision: 0
# Processed by: cddbd v1.5.2PL0 Copyright (c) Steve Scherf et al.
# Submitted via: FreeRIP 2.53 
#
DISCID=a70b780c
DTITLE=Eric-Jan Overbeek and André Valkering - Boogie Woogie Special
DYEAR=1993
DGENRE=Boogie Woogie
TTITLE0=Roll over Boogie
TTITLE1=St. Louis Blues
TTITLE2=Tuesday Shuffle
TTITLE3=Backseat Boogie
TTITLE4=Attack Blues
TTITLE5=Coco Boogie
TTITLE6=Teardrops in my Eyes
TTITLE7=Look-A-Here
TTITLE8=Pianorepairman Boogie
TTITLE9=The Brush
TTITLE10=Soul Squeeze
TTITLE11=Honky Tonk Train Blues
EXTD=Down South Records DSCD 9251
EXTT0=
EXTT1=
EXTT2=
EXTT3=
EXTT4=
EXTT5=
EXTT6=
EXTT7=
EXTT8=
EXTT9=
EXTT10=
EXTT11=
PLAYORDER=
